STARTFONT 2.1
COMMENT  (c) Copyright Bigelow & Holmes 1986, 1985. Lucida is a registered
COMMENT  trademark of Bigelow & Holmes. See LEGAL NOTICE file for terms 
COMMENT  of the license. 
COMMENT GRID 0018 0018 0200 0200
FONT -B&H-LucidaTypewriter-Bold-R-Normal-Sans-18-180-75-75-M-110-ISO8859-1
SIZE 18 72 72
FONTBOUNDINGBOX 11 19 0 -3
STARTPROPERTIES 19
COMMENT Begin LogicalFontDescription
FONTNAME_REGISTRY ""
FOUNDRY "B&H"
FAMILY_NAME "LucidaTypewriter"
WEIGHT_NAME "Bold"
SLANT "R"
SETWIDTH_NAME "Normal"
ADD_STYLE_NAME "Sans"
PIXEL_SIZE 18
POINT_SIZE 180
RESOLUTION_X 75
RESOLUTION_Y 75
SPACING "M"
AVERAGE_WIDTH 110
CHARSET_REGISTRY "ISO8859"
CHARSET_ENCODING "1"
COMMENT END LogicalFontDescription
FONT_ASCENT 16
FONT_DESCENT 3
DEFAULT_CHAR 32
COPYRIGHT "Copyright Bigelow & Holmes 1986, 1985."
ENDPROPERTIES
CHARS 228
STARTCHAR space
ENCODING 32
SWIDTH 42 0
DWIDTH 11 0
BBX 1 1 0 0
BITMAP
00
ENDCHAR
STARTCHAR exclam
ENCODING 33
SWIDTH 42 0
DWIDTH 11 0
BBX 3 13 4 0
BITMAP
E0
E0
E0
E0
E0
60
40
40
00
00
E0
E0
E0
ENDCHAR
STARTCHAR quotedbl
ENCODING 34
SWIDTH 42 0
DWIDTH 11 0
BBX 8 5 2 9
BITMAP
E7
E7
E7
C6
C6
ENDCHAR
STARTCHAR numbersign
ENCODING 35
SWIDTH 42 0
DWIDTH 11 0
BBX 10 13 1 0
BITMAP
1980
1980
1980
7FC0
7FC0
3300
3300
FF80
FF80
6600
6600
6600
6600
ENDCHAR
STARTCHAR dollar
ENCODING 36
SWIDTH 42 0
DWIDTH 11 0
BBX 9 17 1 -2
BITMAP
0C00
0C00
3F00
7F80
E180
E000
F000
7C00
3E00
1F00
0780
0380
C380
FF00
7E00
1800
1800
ENDCHAR
STARTCHAR percent
ENCODING 37
SWIDTH 42 0
DWIDTH 11 0
BBX 11 13 0 0
BITMAP
7000
D840
D8C0
D980
DB00
DA00
75C0
0B60
1B60
3360
6360
4360
01C0
ENDCHAR
STARTCHAR ampersand
ENCODING 38
SWIDTH 42 0
DWIDTH 11 0
BBX 11 13 0 0
BITMAP
0E00
1F00
3B80
3B80
3B00
1E60
7C60
EE60
EF60
E7C0
F380
7FE0
1EE0
ENDCHAR
STARTCHAR quoteright
ENCODING 39
SWIDTH 42 0
DWIDTH 11 0
BBX 4 5 3 9
BITMAP
F0
F0
F0
30
E0
ENDCHAR
STARTCHAR parenleft
ENCODING 40
SWIDTH 42 0
DWIDTH 11 0
BBX 7 16 2 -2
BITMAP
06
1E
38
70
70
E0
E0
E0
E0
E0
E0
70
70
38
1E
06
ENDCHAR
STARTCHAR parenright
ENCODING 41
SWIDTH 42 0
DWIDTH 11 0
BBX 7 16 2 -2
BITMAP
C0
F0
38
1C
1C
0E
0E
0E
0E
0E
0E
1C
1C
38
F0
C0
ENDCHAR
STARTCHAR asterisk
ENCODING 42
SWIDTH 42 0
DWIDTH 11 0
BBX 8 7 2 6
BITMAP
18
18
DB
E7
18
66
66
ENDCHAR
STARTCHAR plus
ENCODING 43
SWIDTH 42 0
DWIDTH 11 0
BBX 10 10 1 1
BITMAP
0C00
0C00
0C00
0C00
FFC0
FFC0
0C00
0C00
0C00
0C00
ENDCHAR
STARTCHAR comma
ENCODING 44
SWIDTH 42 0
DWIDTH 11 0
BBX 4 5 3 -2
BITMAP
F0
F0
F0
30
E0
ENDCHAR
STARTCHAR minus
ENCODING 45
SWIDTH 42 0
DWIDTH 11 0
BBX 10 2 1 5
BITMAP
FFC0
FFC0
ENDCHAR
STARTCHAR period
ENCODING 46
SWIDTH 42 0
DWIDTH 11 0
BBX 4 3 4 0
BITMAP
F0
F0
F0
ENDCHAR
STARTCHAR slash
ENCODING 47
SWIDTH 42 0
DWIDTH 11 0
BBX 9 16 1 -2
BITMAP
0380
0380
0700
0700
0E00
0E00
0E00
1C00
1C00
3800
3800
3800
7000
7000
E000
E000
ENDCHAR
STARTCHAR zero
ENCODING 48
SWIDTH 42 0
DWIDTH 11 0
BBX 10 13 1 0
BITMAP
1E00
7F80
7380
E1C0
E1C0
E1C0
E1C0
E1C0
E1C0
E1C0
7380
7F80
1E00
ENDCHAR
STARTCHAR one
ENCODING 49
SWIDTH 42 0
DWIDTH 11 0
BBX 6 13 1 0
BITMAP
0C
FC
FC
1C
1C
1C
1C
1C
1C
1C
1C
1C
1C
ENDCHAR
STARTCHAR two
ENCODING 50
SWIDTH 42 0
DWIDTH 11 0
BBX 8 13 1 0
BITMAP
7C
FE
C7
07
07
0E
1C
38
70
E0
FF
FF
FF
ENDCHAR
STARTCHAR three
ENCODING 51
SWIDTH 42 0
DWIDTH 11 0
BBX 8 13 2 0
BITMAP
7C
FE
C7
07
0E
78
7C
0E
07
07
CF
FE
78
ENDCHAR
STARTCHAR four
ENCODING 52
SWIDTH 42 0
DWIDTH 11 0
BBX 10 13 0 0
BITMAP
0700
0F00
1F00
3700
3700
6700
C700
FFC0
FFC0
0700
0700
0700
0700
ENDCHAR
STARTCHAR five
ENCODING 53
SWIDTH 42 0
DWIDTH 11 0
BBX 8 13 2 0
BITMAP
FF
FF
FF
C0
C0
F8
FE
0F
07
07
C7
FE
78
ENDCHAR
STARTCHAR six
ENCODING 54
SWIDTH 42 0
DWIDTH 11 0
BBX 9 13 1 0
BITMAP
1F00
7F80
6180
E000
EE00
FF00
F780
E380
E380
E380
7380
7F00
1E00
ENDCHAR
STARTCHAR seven
ENCODING 55
SWIDTH 42 0
DWIDTH 11 0
BBX 9 13 1 0
BITMAP
FF80
FF80
FF80
0380
0380
0700
0E00
1C00
3800
3800
7000
7000
7000
ENDCHAR
STARTCHAR eight
ENCODING 56
SWIDTH 42 0
DWIDTH 11 0
BBX 9 13 1 0
BITMAP
3E00
7F00
E380
E380
F300
7E00
3E00
6F00
E780
E380
E380
7F00
3E00
ENDCHAR
STARTCHAR nine
ENCODING 57
SWIDTH 42 0
DWIDTH 11 0
BBX 9 13 1 0
BITMAP
3C00
7F00
E700
E380
E380
E380
F780
7F80
3B80
0380
6300
7F00
3C00
ENDCHAR
STARTCHAR colon
ENCODING 58
SWIDTH 42 0
DWIDTH 11 0
BBX 3 10 4 0
BITMAP
E0
E0
E0
00
00
00
00
E0
E0
E0
ENDCHAR
STARTCHAR semicolon
ENCODING 59
SWIDTH 42 0
DWIDTH 11 0
BBX 3 12 4 -2
BITMAP
E0
E0
E0
00
00
00
00
E0
E0
E0
60
C0
ENDCHAR
STARTCHAR less
ENCODING 60
SWIDTH 42 0
DWIDTH 11 0
BBX 10 10 0 1
BITMAP
00C0
03C0
0F00
3C00
E000
E000
3C00
0F00
03C0
00C0
ENDCHAR
STARTCHAR equal
ENCODING 61
SWIDTH 42 0
DWIDTH 11 0
BBX 10 6 1 3
BITMAP
FFC0
FFC0
0000
0000
FFC0
FFC0
ENDCHAR
STARTCHAR greater
ENCODING 62
SWIDTH 42 0
DWIDTH 11 0
BBX 10 10 1 1
BITMAP
C000
F000
3C00
0F00
01C0
01C0
0F00
3C00
F000
C000
ENDCHAR
STARTCHAR question
ENCODING 63
SWIDTH 42 0
DWIDTH 11 0
BBX 9 13 1 0
BITMAP
7E00
FF00
C380
0380
0700
1E00
3800
3000
0000
0000
3800
3800
3800
ENDCHAR
STARTCHAR at
ENCODING 64
SWIDTH 42 0
DWIDTH 11 0
BBX 11 13 0 0
BITMAP
0F00
3980
60C0
67C0
CCC0
CCC0
CCC0
CCC0
CFC0
6660
6000
3800
0F80
ENDCHAR
STARTCHAR A
ENCODING 65
SWIDTH 42 0
DWIDTH 11 0
BBX 11 13 0 0
BITMAP
0E00
0E00
1F00
1300
3380
3380
61C0
7FC0
7FC0
E0E0
E0E0
E0E0
E0E0
ENDCHAR
STARTCHAR B
ENCODING 66
SWIDTH 42 0
DWIDTH 11 0
BBX 9 13 1 0
BITMAP
FE00
FF00
E700
E700
E600
FC00
FE00
E700
E380
E380
E780
FF00
FC00
ENDCHAR
STARTCHAR C
ENCODING 67
SWIDTH 42 0
DWIDTH 11 0
BBX 10 13 0 0
BITMAP
0F80
3FC0
78C0
7000
E000
E000
E000
E000
F000
7000
7CC0
3FC0
0F00
ENDCHAR
STARTCHAR D
ENCODING 68
SWIDTH 42 0
DWIDTH 11 0
BBX 10 13 1 0
BITMAP
FC00
FF00
E780
E380
E1C0
E1C0
E1C0
E1C0
E1C0
E380
E780
FF00
FC00
ENDCHAR
STARTCHAR E
ENCODING 69
SWIDTH 42 0
DWIDTH 11 0
BBX 9 13 1 0
BITMAP
FF80
FF80
E000
E000
E000
FF00
FF00
E000
E000
E000
E000
FF80
FF80
ENDCHAR
STARTCHAR F
ENCODING 70
SWIDTH 42 0
DWIDTH 11 0
BBX 9 13 1 0
BITMAP
FF80
FF80
E000
E000
E000
FF00
FF00
E000
E000
E000
E000
E000
E000
ENDCHAR
STARTCHAR G
ENCODING 71
SWIDTH 42 0
DWIDTH 11 0
BBX 10 13 0 0
BITMAP
0F80
3FC0
78C0
7000
E000
E000
E000
E1C0
F1C0
71C0
79C0
3FC0
0FC0
ENDCHAR
STARTCHAR H
ENCODING 72
SWIDTH 42 0
DWIDTH 11 0
BBX 9 13 1 0
BITMAP
E380
E380
E380
E380
E380
FF80
FF80
E380
E380
E380
E380
E380
E380
ENDCHAR
STARTCHAR I
ENCODING 73
SWIDTH 42 0
DWIDTH 11 0
BBX 7 13 2 0
BITMAP
FE
FE
38
38
38
38
38
38
38
38
38
FE
FE
ENDCHAR
STARTCHAR J
ENCODING 74
SWIDTH 42 0
DWIDTH 11 0
BBX 9 13 1 0
BITMAP
3F80
3F80
0380
0380
0380
0380
0380
0380
0380
C380
C700
FF00
FC00
ENDCHAR
STARTCHAR K
ENCODING 75
SWIDTH 42 0
DWIDTH 11 0
BBX 10 13 1 0
BITMAP
E180
E380
E700
E600
EC00
F800
F800
FC00
EE00
E700
E780
E3C0
E1C0
ENDCHAR
STARTCHAR L
ENCODING 76
SWIDTH 42 0
DWIDTH 11 0
BBX 9 13 2 0
BITMAP
E000
E000
E000
E000
E000
E000
E000
E000
E000
E000
E000
FF80
FF80
ENDCHAR
STARTCHAR M
ENCODING 77
SWIDTH 42 0
DWIDTH 11 0
BBX 10 13 1 0
BITMAP
E1C0
E1C0
F1C0
F1C0
FBC0
DAC0
DAC0
DEC0
DEC0
CCC0
CCC0
C0C0
C0C0
ENDCHAR
STARTCHAR N
ENCODING 78
SWIDTH 42 0
DWIDTH 11 0
BBX 9 13 1 0
BITMAP
E180
E180
F180
F180
F980
DD80
DD80
CF80
CF80
C780
C380
C380
C180
ENDCHAR
STARTCHAR O
ENCODING 79
SWIDTH 42 0
DWIDTH 11 0
BBX 10 13 1 0
BITMAP
1E00
3F00
7380
7380
E1C0
E1C0
E1C0
E1C0
E1C0
7380
7380
3F00
1E00
ENDCHAR
STARTCHAR P
ENCODING 80
SWIDTH 42 0
DWIDTH 11 0
BBX 9 13 1 0
BITMAP
FE00
FF00
E780
E380
E380
E700
FF00
FC00
E000
E000
E000
E000
E000
ENDCHAR
STARTCHAR Q
ENCODING 81
SWIDTH 42 0
DWIDTH 11 0
BBX 10 15 1 -2
BITMAP
1E00
3F00
7380
7380
E1C0
E1C0
E1C0
E1C0
E1C0
7380
7380
3F00
1E00
0780
0380
ENDCHAR
STARTCHAR R
ENCODING 82
SWIDTH 42 0
DWIDTH 11 0
BBX 9 13 1 0
BITMAP
FE00
FF00
E780
E380
E380
E700
FC00
FE00
EE00
E700
E780
E380
E380
ENDCHAR
STARTCHAR S
ENCODING 83
SWIDTH 42 0
DWIDTH 11 0
BBX 9 13 1 0
BITMAP
3F00
7F80
E180
E000
F800
FE00
7F00
1F80
0780
0380
C380
FF00
7E00
ENDCHAR
STARTCHAR T
ENCODING 84
SWIDTH 42 0
DWIDTH 11 0
BBX 11 13 0 0
BITMAP
FFE0
FFE0
0E00
0E00
0E00
0E00
0E00
0E00
0E00
0E00
0E00
0E00
0E00
ENDCHAR
STARTCHAR U
ENCODING 85
SWIDTH 42 0
DWIDTH 11 0
BBX 10 13 1 0
BITMAP
E1C0
E1C0
E1C0
E1C0
E1C0
E1C0
E1C0
E1C0
E1C0
E1C0
7380
7F80
1E00
ENDCHAR
STARTCHAR V
ENCODING 86
SWIDTH 42 0
DWIDTH 11 0
BBX 11 13 0 0
BITMAP
E0E0
E0E0
E0E0
E0E0
70C0
70C0
71C0
3980
3980
1F00
1F00
0E00
0E00
ENDCHAR
STARTCHAR W
ENCODING 87
SWIDTH 42 0
DWIDTH 11 0
BBX 10 13 0 0
BITMAP
C0C0
C0C0
CCC0
CCC0
CCC0
EEC0
6E80
7780
7780
7780
3300
3300
3300
ENDCHAR
STARTCHAR X
ENCODING 88
SWIDTH 42 0
DWIDTH 11 0
BBX 10 13 1 0
BITMAP
E0C0
F1C0
7180
7B80
3B00
1E00
1E00
1E00
3700
7780
6380
E3C0
C1C0
ENDCHAR
STARTCHAR Y
ENCODING 89
SWIDTH 42 0
DWIDTH 11 0
BBX 11 13 0 0
BITMAP
E0E0
E0E0
70C0
71C0
3980
3980
1F00
0E00
0E00
0E00
0E00
0E00
0E00
ENDCHAR
STARTCHAR Z
ENCODING 90
SWIDTH 42 0
DWIDTH 11 0
BBX 10 13 1 0
BITMAP
FFC0
FFC0
03C0
0780
0F00
0F00
1E00
3C00
3C00
7800
F000
FFC0
FFC0
ENDCHAR
STARTCHAR bracketleft
ENCODING 91
SWIDTH 42 0
DWIDTH 11 0
BBX 6 16 3 -2
BITMAP
FC
FC
E0
E0
E0
E0
E0
E0
E0
E0
E0
E0
E0
E0
FC
FC
ENDCHAR
STARTCHAR backslash
ENCODING 92
SWIDTH 42 0
DWIDTH 11 0
BBX 9 16 1 -2
BITMAP
E000
E000
7000
7000
3800
3800
3800
1C00
1C00
0E00
0E00
0E00
0700
0700
0380
0380
ENDCHAR
STARTCHAR bracketright
ENCODING 93
SWIDTH 42 0
DWIDTH 11 0
BBX 6 16 2 -2
BITMAP
FC
FC
1C
1C
1C
1C
1C
1C
1C
1C
1C
1C
1C
1C
FC
FC
ENDCHAR
STARTCHAR asciicircum
ENCODING 94
SWIDTH 42 0
DWIDTH 11 0
BBX 9 10 1 2
BITMAP
0800
1C00
1C00
3600
3600
6300
6300
C180
C180
C180
ENDCHAR
STARTCHAR underscore
ENCODING 95
SWIDTH 42 0
DWIDTH 11 0
BBX 11 2 0 -2
BITMAP
FFE0
FFE0
ENDCHAR
STARTCHAR quoteleft
ENCODING 96
SWIDTH 42 0
DWIDTH 11 0
BBX 4 5 4 9
BITMAP
70
C0
F0
F0
F0
ENDCHAR
STARTCHAR a
ENCODING 97
SWIDTH 42 0
DWIDTH 11 0
BBX 10 10 1 0
BITMAP
3E00
7F00
6380
0380
1F80
7F80
E380
E380
FFC0
79C0
ENDCHAR
STARTCHAR b
ENCODING 98
SWIDTH 42 0
DWIDTH 11 0
BBX 9 14 1 0
BITMAP
E000
E000
E000
E000
EE00
FF00
F780
E380
E380
E380
E380
E700
FF00
DC00
ENDCHAR
STARTCHAR c
ENCODING 99
SWIDTH 42 0
DWIDTH 11 0
BBX 9 10 1 0
BITMAP
1F00
7F80
7180
E000
E000
E000
E000
F180
7F80
1E00
ENDCHAR
STARTCHAR d
ENCODING 100
SWIDTH 42 0
DWIDTH 11 0
BBX 9 14 1 0
BITMAP
0380
0380
0380
0380
1B80
7F80
7780
E380
E380
E380
E380
F780
7F80
3980
ENDCHAR
STARTCHAR e
ENCODING 101
SWIDTH 42 0
DWIDTH 11 0
BBX 9 10 1 0
BITMAP
1E00
7F00
7380
E380
FF80
FF80
E000
F180
7F80
1F00
ENDCHAR
STARTCHAR f
ENCODING 102
SWIDTH 42 0
DWIDTH 11 0
BBX 9 14 1 0
BITMAP
0F80
1F80
3800
3800
3800
FF80
FF80
3800
3800
3800
3800
3800
3800
3800
ENDCHAR
STARTCHAR g
ENCODING 103
SWIDTH 42 0
DWIDTH 11 0
BBX 9 13 1 -3
BITMAP
1B80
7F80
7780
E380
E380
E380
F780
7F80
3B80
0380
6380
7F00
3E00
ENDCHAR
STARTCHAR h
ENCODING 104
SWIDTH 42 0
DWIDTH 11 0
BBX 9 14 1 0
BITMAP
E000
E000
E000
E000
EF00
FF80
F380
E380
E380
E380
E380
E380
E380
E380
ENDCHAR
STARTCHAR i
ENCODING 105
SWIDTH 42 0
DWIDTH 11 0
BBX 6 14 2 0
BITMAP
1C
1C
00
00
FC
FC
1C
1C
1C
1C
1C
1C
1C
1C
ENDCHAR
STARTCHAR j
ENCODING 106
SWIDTH 42 0
DWIDTH 11 0
BBX 7 17 1 -3
BITMAP
0E
0E
00
00
7E
7E
0E
0E
0E
0E
0E
0E
0E
0E
0C
FC
F0
ENDCHAR
STARTCHAR k
ENCODING 107
SWIDTH 42 0
DWIDTH 11 0
BBX 9 14 1 0
BITMAP
E000
E000
E000
E000
E180
E380
E700
EE00
FC00
FC00
EE00
E700
E780
E380
ENDCHAR
STARTCHAR l
ENCODING 108
SWIDTH 42 0
DWIDTH 11 0
BBX 6 14 2 0
BITMAP
FC
FC
1C
1C
1C
1C
1C
1C
1C
1C
1C
1C
1C
1C
ENDCHAR
STARTCHAR m
ENCODING 109
SWIDTH 42 0
DWIDTH 11 0
BBX 10 10 1 0
BITMAP
D980
FFC0
EEC0
CCC0
CCC0
CCC0
CCC0
CCC0
CCC0
CCC0
ENDCHAR
STARTCHAR n
ENCODING 110
SWIDTH 42 0
DWIDTH 11 0
BBX 9 10 1 0
BITMAP
CF00
FF80
F380
E380
E380
E380
E380
E380
E380
E380
ENDCHAR
STARTCHAR o
ENCODING 111
SWIDTH 42 0
DWIDTH 11 0
BBX 10 10 1 0
BITMAP
1E00
7F80
7380
E1C0
E1C0
E1C0
E1C0
7380
7F80
1E00
ENDCHAR
STARTCHAR p
ENCODING 112
SWIDTH 42 0
DWIDTH 11 0
BBX 9 13 1 -3
BITMAP
CE00
FF00
F780
E380
E380
E380
E380
E700
FF00
EC00
E000
E000
E000
ENDCHAR
STARTCHAR q
ENCODING 113
SWIDTH 42 0
DWIDTH 11 0
BBX 9 13 1 -3
BITMAP
1B80
7F80
7780
E380
E380
E380
E380
F780
7F80
3B80
0380
0380
0380
ENDCHAR
STARTCHAR r
ENCODING 114
SWIDTH 42 0
DWIDTH 11 0
BBX 8 10 2 0
BITMAP
E7
EF
FF
F3
E3
E0
E0
E0
E0
E0
ENDCHAR
STARTCHAR s
ENCODING 115
SWIDTH 42 0
DWIDTH 11 0
BBX 9 10 1 0
BITMAP
3F00
7F80
E180
F000
7C00
1F00
0780
C380
FF00
7E00
ENDCHAR
STARTCHAR t
ENCODING 116
SWIDTH 42 0
DWIDTH 11 0
BBX 9 12 1 0
BITMAP
1800
3800
3800
FF80
FF80
3800
3800
3800
3800
3800
1F80
0F80
ENDCHAR
STARTCHAR u
ENCODING 117
SWIDTH 42 0
DWIDTH 11 0
BBX 9 10 1 0
BITMAP
E380
E380
E380
E380
E380
E380
E380
E780
FF80
7980
ENDCHAR
STARTCHAR v
ENCODING 118
SWIDTH 42 0
DWIDTH 11 0
BBX 10 10 1 0
BITMAP
E0C0
E0C0
E0C0
F180
7180
7B00
3B00
3E00
1E00
1C00
ENDCHAR
STARTCHAR w
ENCODING 119
SWIDTH 42 0
DWIDTH 11 0
BBX 11 10 0 0
BITMAP
E060
E660
E660
E660
EF40
6F40
7BC0
7B80
3180
3180
ENDCHAR
STARTCHAR x
ENCODING 120
SWIDTH 42 0
DWIDTH 11 0
BBX 9 10 1 0
BITMAP
E180
E300
7300
7600
3C00
1E00
3700
6700
6380
C380
ENDCHAR
STARTCHAR y
ENCODING 121
SWIDTH 42 0
DWIDTH 11 0
BBX 10 13 1 -3
BITMAP
E0C0
E0C0
E0C0
7180
7180
3B00
3B00
1E00
1E00
0C00
1C00
3800
3800
ENDCHAR
STARTCHAR z
ENCODING 122
SWIDTH 42 0
DWIDTH 11 0
BBX 9 10 1 0
BITMAP
FF80
FF80
0700
0E00
1C00
3800
7000
E000
FF80
FF80
ENDCHAR
STARTCHAR braceleft
ENCODING 123
SWIDTH 42 0
DWIDTH 11 0
BBX 8 16 2 -2
BITMAP
3F
7F
70
70
38
18
18
F0
F8
18
18
30
70
70
7F
3F
ENDCHAR
STARTCHAR bar
ENCODING 124
SWIDTH 42 0
DWIDTH 11 0
BBX 2 16 5 -2
BITMAP
C0
C0
C0
C0
C0
C0
C0
C0
C0
C0
C0
C0
C0
C0
C0
C0
ENDCHAR
STARTCHAR braceright
ENCODING 125
SWIDTH 42 0
DWIDTH 11 0
BBX 8 16 1 -2
BITMAP
FC
FE
0E
0E
1C
18
18
0F
1F
18
18
0C
0E
0E
FE
FC
ENDCHAR
STARTCHAR asciitilde
ENCODING 126
SWIDTH 42 0
DWIDTH 11 0
BBX 10 3 1 5
BITMAP
7CC0
DEC0
CF80
ENDCHAR
STARTCHAR exclamdown
ENCODING 161
SWIDTH 42 0
DWIDTH 11 0
BBX 3 13 4 -3
BITMAP
E0
E0
E0
00
40
40
C0
E0
E0
E0
E0
E0
E0
ENDCHAR
STARTCHAR cent
ENCODING 162
SWIDTH 42 0
DWIDTH 11 0
BBX 10 13 1 0
BITMAP
0600
0600
1F80
7FC0
70C0
E000
E000
E000
F000
7FC0
1FC0
0600
0600
ENDCHAR
STARTCHAR sterling
ENCODING 163
SWIDTH 42 0
DWIDTH 11 0
BBX 10 13 1 0
BITMAP
0F80
1FC0
38C0
3800
3800
FF00
FF00
3800
3800
3000
6000
FFC0
FFC0
ENDCHAR
STARTCHAR currency
ENCODING 164
SWIDTH 42 0
DWIDTH 11 0
BBX 11 11 0 1
BITMAP
C060
4E40
3F80
3180
71C0
71C0
71C0
3180
3F80
4E40
C060
ENDCHAR
STARTCHAR yen
ENCODING 165
SWIDTH 42 0
DWIDTH 11 0
BBX 11 13 0 0
BITMAP
E0E0
E0E0
70C0
71C0
3980
3B80
1F00
0E00
3F80
0E00
3F80
0E00
0E00
ENDCHAR
STARTCHAR brokenbar
ENCODING 166
SWIDTH 42 0
DWIDTH 11 0
BBX 2 16 5 -2
BITMAP
C0
C0
C0
C0
C0
C0
00
00
00
C0
C0
C0
C0
C0
C0
C0
ENDCHAR
STARTCHAR section
ENCODING 167
SWIDTH 42 0
DWIDTH 11 0
BBX 9 15 1 -2
BITMAP
3F00
7F80
E180
F000
7C00
DF00
C780
E380
F180
7D80
1F00
0780
C380
FF00
7E00
ENDCHAR
STARTCHAR dieresis
ENCODING 168
SWIDTH 42 0
DWIDTH 11 0
BBX 6 2 3 11
BITMAP
CC
CC
ENDCHAR
STARTCHAR copyright
ENCODING 169
SWIDTH 42 0
DWIDTH 11 0
BBX 10 13 1 0
BITMAP
1E00
7F80
6180
CEC0
DEC0
D8C0
D8C0
D8C0
DEC0
CEC0
6180
7F80
1E00
ENDCHAR
STARTCHAR ordfeminine
ENCODING 170
SWIDTH 42 0
DWIDTH 11 0
BBX 9 8 1 5
BITMAP
FE00
FF00
0700
7F00
E700
E700
FF80
7B80
ENDCHAR
STARTCHAR guillemotleft
ENCODING 171
SWIDTH 42 0
DWIDTH 11 0
BBX 9 8 1 1
BITMAP
1100
3B80
7700
EE00
EE00
7700
3B80
1100
ENDCHAR
STARTCHAR logicalnot
ENCODING 172
SWIDTH 42 0
DWIDTH 11 0
BBX 10 5 1 3
BITMAP
FFC0
FFC0
00C0
00C0
00C0
ENDCHAR
STARTCHAR hyphen
ENCODING 173
SWIDTH 42 0
DWIDTH 11 0
BBX 5 2 3 5
BITMAP
F8
F8
ENDCHAR
STARTCHAR registered
ENCODING 174
SWIDTH 42 0
DWIDTH 11 0
BBX 10 10 1 3
BITMAP
1E00
7F80
6180
DEC0
DAC0
DCC0
DAC0
6180
7F80
1E00
ENDCHAR
STARTCHAR macron
ENCODING 175
SWIDTH 42 0
DWIDTH 11 0
BBX 5 1 3 11
BITMAP
F8
ENDCHAR
STARTCHAR degree
ENCODING 176
SWIDTH 42 0
DWIDTH 11 0
BBX 6 5 3 8
BITMAP
78
CC
CC
CC
78
ENDCHAR
STARTCHAR plusminus
ENCODING 177
SWIDTH 42 0
DWIDTH 11 0
BBX 10 11 1 1
BITMAP
0C00
0C00
0C00
FFC0
FFC0
0C00
0C00
0C00
0000
FFC0
FFC0
ENDCHAR
STARTCHAR twosuperior
ENCODING 178
SWIDTH 42 0
DWIDTH 11 0
BBX 7 8 2 5
BITMAP
FC
FE
0E
1E
7C
E0
FE
FE
ENDCHAR
STARTCHAR threesuperior
ENCODING 179
SWIDTH 42 0
DWIDTH 11 0
BBX 7 8 2 5
BITMAP
FC
FE
0E
7C
7E
0E
FE
FC
ENDCHAR
STARTCHAR acute
ENCODING 180
SWIDTH 42 0
DWIDTH 11 0
BBX 5 2 3 11
BITMAP
78
E0
ENDCHAR
STARTCHAR mu
ENCODING 181
SWIDTH 42 0
DWIDTH 11 0
BBX 9 13 1 -3
BITMAP
E380
E380
E380
E380
E380
E380
E380
F780
FF80
F980
E000
E000
E000
ENDCHAR
STARTCHAR paragraph
ENCODING 182
SWIDTH 42 0
DWIDTH 11 0
BBX 9 15 1 -2
BITMAP
7F80
FD80
FD80
FD80
FD80
7D80
3D80
0D80
0D80
0D80
0D80
0D80
0D80
0D80
0D80
ENDCHAR
STARTCHAR periodcentered
ENCODING 183
SWIDTH 42 0
DWIDTH 11 0
BBX 4 4 4 4
BITMAP
F0
F0
F0
F0
ENDCHAR
STARTCHAR cedilla
ENCODING 184
SWIDTH 42 0
DWIDTH 11 0
BBX 4 3 4 -3
BITMAP
60
30
E0
ENDCHAR
STARTCHAR onesuperior
ENCODING 185
SWIDTH 42 0
DWIDTH 11 0
BBX 7 8 2 5
BITMAP
38
F8
F8
38
38
38
FE
FE
ENDCHAR
STARTCHAR ordmasculine
ENCODING 186
SWIDTH 42 0
DWIDTH 11 0
BBX 9 8 1 5
BITMAP
3E00
7F00
E380
E380
E380
E380
7F00
3E00
ENDCHAR
STARTCHAR guillemotright
ENCODING 187
SWIDTH 42 0
DWIDTH 11 0
BBX 9 8 1 1
BITMAP
4400
EE00
7700
3B80
3B80
7700
EE00
4400
ENDCHAR
STARTCHAR onequarter
ENCODING 188
SWIDTH 42 0
DWIDTH 11 0
BBX 11 14 0 0
BITMAP
0060
7060
F0C0
7180
7300
7300
7600
7DC0
1AC0
34C0
3FE0
6FE0
C1C0
C1C0
ENDCHAR
STARTCHAR onehalf
ENCODING 189
SWIDTH 42 0
DWIDTH 11 0
BBX 11 14 0 0
BITMAP
00C0
70C0
F180
7300
7300
7600
7600
7BC0
1EE0
36E0
30C0
6300
C7E0
C7E0
ENDCHAR
STARTCHAR threequarters
ENCODING 190
SWIDTH 42 0
DWIDTH 11 0
BBX 11 14 0 0
BITMAP
0060
7060
F8C0
1980
7300
1B00
FE00
7DC0
1AC0
34C0
3FE0
6FE0
C1C0
C1C0
ENDCHAR
STARTCHAR questiondown
ENCODING 191
SWIDTH 42 0
DWIDTH 11 0
BBX 9 13 1 -3
BITMAP
0700
0700
0700
0000
0000
0600
0E00
3C00
7000
E000
E180
7F80
3F00
ENDCHAR
STARTCHAR Agrave
ENCODING 192
SWIDTH 42 0
DWIDTH 11 0
BBX 11 16 0 0
BITMAP
1E00
0700
0000
0E00
0E00
1F00
1300
3380
3380
61C0
7FC0
7FC0
E0E0
E0E0
E0E0
E0E0
ENDCHAR
STARTCHAR Aacute
ENCODING 193
SWIDTH 42 0
DWIDTH 11 0
BBX 11 16 0 0
BITMAP
0F00
1C00
0000
0E00
0E00
1F00
1300
3380
3380
61C0
7FC0
7FC0
E0E0
E0E0
E0E0
E0E0
ENDCHAR
STARTCHAR Acircumflex
ENCODING 194
SWIDTH 42 0
DWIDTH 11 0
BBX 11 16 0 0
BITMAP
0E00
1B00
0000
0E00
0E00
1F00
1300
3380
3380
61C0
7FC0
7FC0
E0E0
E0E0
E0E0
E0E0
ENDCHAR
STARTCHAR Atilde
ENCODING 195
SWIDTH 42 0
DWIDTH 11 0
BBX 11 16 0 0
BITMAP
0E80
1700
0000
0E00
0E00
1F00
1300
3380
3380
61C0
7FC0
7FC0
E0E0
E0E0
E0E0
E0E0
ENDCHAR
STARTCHAR Adieresis
ENCODING 196
SWIDTH 42 0
DWIDTH 11 0
BBX 11 16 0 0
BITMAP
1B00
1B00
0000
0E00
0E00
1F00
1300
3380
3380
61C0
7FC0
7FC0
E0E0
E0E0
E0E0
E0E0
ENDCHAR
STARTCHAR Aring
ENCODING 197
SWIDTH 42 0
DWIDTH 11 0
BBX 11 15 0 0
BITMAP
0E00
1300
0E00
0E00
1F00
1300
3380
3380
61C0
7FC0
7FC0
E0E0
E0E0
E0E0
E0E0
ENDCHAR
STARTCHAR AE
ENCODING 198
SWIDTH 42 0
DWIDTH 11 0
BBX 11 13 0 0
BITMAP
07E0
0FE0
0F80
1B80
1B80
33E0
33E0
3F80
7F80
6380
E380
E3E0
E3E0
ENDCHAR
STARTCHAR Ccedilla
ENCODING 199
SWIDTH 42 0
DWIDTH 11 0
BBX 10 16 0 -3
BITMAP
0F80
3FC0
78C0
7000
E000
E000
E000
E000
F000
7000
7CC0
3FC0
0F00
0600
0300
0E00
ENDCHAR
STARTCHAR Egrave
ENCODING 200
SWIDTH 42 0
DWIDTH 11 0
BBX 9 16 1 0
BITMAP
3C00
0E00
0000
FF80
FF80
E000
E000
E000
FF00
FF00
E000
E000
E000
E000
FF80
FF80
ENDCHAR
STARTCHAR Eacute
ENCODING 201
SWIDTH 42 0
DWIDTH 11 0
BBX 9 16 1 0
BITMAP
1E00
3800
0000
FF80
FF80
E000
E000
E000
FF00
FF00
E000
E000
E000
E000
FF80
FF80
ENDCHAR
STARTCHAR Ecircumflex
ENCODING 202
SWIDTH 42 0
DWIDTH 11 0
BBX 9 16 1 0
BITMAP
1C00
3600
0000
FF80
FF80
E000
E000
E000
FF00
FF00
E000
E000
E000
E000
FF80
FF80
ENDCHAR
STARTCHAR Edieresis
ENCODING 203
SWIDTH 42 0
DWIDTH 11 0
BBX 9 16 1 0
BITMAP
3300
3300
0000
FF80
FF80
E000
E000
E000
FF00
FF00
E000
E000
E000
E000
FF80
FF80
ENDCHAR
STARTCHAR Igrave
ENCODING 204
SWIDTH 42 0
DWIDTH 11 0
BBX 7 16 2 0
BITMAP
78
1C
00
FE
FE
38
38
38
38
38
38
38
38
38
FE
FE
ENDCHAR
STARTCHAR Iacute
ENCODING 205
SWIDTH 42 0
DWIDTH 11 0
BBX 7 16 2 0
BITMAP
3C
70
00
FE
FE
38
38
38
38
38
38
38
38
38
FE
FE
ENDCHAR
STARTCHAR Icircumflex
ENCODING 206
SWIDTH 42 0
DWIDTH 11 0
BBX 7 16 2 0
BITMAP
38
6C
00
FE
FE
38
38
38
38
38
38
38
38
38
FE
FE
ENDCHAR
STARTCHAR Idieresis
ENCODING 207
SWIDTH 42 0
DWIDTH 11 0
BBX 7 16 2 0
BITMAP
66
66
00
FE
FE
38
38
38
38
38
38
38
38
38
FE
FE
ENDCHAR
STARTCHAR Eth
ENCODING 208
SWIDTH 42 0
DWIDTH 11 0
BBX 11 13 0 0
BITMAP
7E00
7F80
73C0
71C0
70E0
FCE0
FCE0
70E0
70E0
71C0
73C0
7F80
7E00
ENDCHAR
STARTCHAR Ntilde
ENCODING 209
SWIDTH 42 0
DWIDTH 11 0
BBX 9 16 1 0
BITMAP
1D00
2E00
0000
E180
E180
F180
F180
F980
DD80
DD80
CF80
CF80
C780
C380
C380
C180
ENDCHAR
STARTCHAR Ograve
ENCODING 210
SWIDTH 42 0
DWIDTH 11 0
BBX 10 16 1 0
BITMAP
3C00
0E00
0000
1E00
3F00
7380
7380
E1C0
E1C0
E1C0
E1C0
E1C0
7380
7380
3F00
1E00
ENDCHAR
STARTCHAR Oacute
ENCODING 211
SWIDTH 42 0
DWIDTH 11 0
BBX 10 16 1 0
BITMAP
0F00
1C00
0000
1E00
3F00
7380
7380
E1C0
E1C0
E1C0
E1C0
E1C0
7380
7380
3F00
1E00
ENDCHAR
STARTCHAR Ocircumflex
ENCODING 212
SWIDTH 42 0
DWIDTH 11 0
BBX 10 16 1 0
BITMAP
0E00
1B00
0000
1E00
3F00
7380
7380
E1C0
E1C0
E1C0
E1C0
E1C0
7380
7380
3F00
1E00
ENDCHAR
STARTCHAR Otilde
ENCODING 213
SWIDTH 42 0
DWIDTH 11 0
BBX 10 16 1 0
BITMAP
1D00
2E00
0000
1E00
3F00
7380
7380
E1C0
E1C0
E1C0
E1C0
E1C0
7380
7380
3F00
1E00
ENDCHAR
STARTCHAR Odieresis
ENCODING 214
SWIDTH 42 0
DWIDTH 11 0
BBX 10 16 1 0
BITMAP
3300
3300
0000
1E00
3F00
7380
7380
E1C0
E1C0
E1C0
E1C0
E1C0
7380
7380
3F00
1E00
ENDCHAR
STARTCHAR multiply
ENCODING 215
SWIDTH 42 0
DWIDTH 11 0
BBX 10 10 1 1
BITMAP
C0C0
E1C0
7380
3B00
0E00
1C00
3700
7380
E1C0
C0C0
ENDCHAR
STARTCHAR Oslash
ENCODING 216
SWIDTH 42 0
DWIDTH 11 0
BBX 10 15 1 -1
BITMAP
00C0
1EC0
3F80
7380
7380
E5C0
E5C0
EDC0
E9C0
E9C0
7380
7380
7F00
DE00
C000
ENDCHAR
STARTCHAR Ugrave
ENCODING 217
SWIDTH 42 0
DWIDTH 11 0
BBX 10 16 1 0
BITMAP
3C00
0E00
0000
E1C0
E1C0
E1C0
E1C0
E1C0
E1C0
E1C0
E1C0
E1C0
E1C0
7380
7F80
1E00
ENDCHAR
STARTCHAR Uacute
ENCODING 218
SWIDTH 42 0
DWIDTH 11 0
BBX 10 16 1 0
BITMAP
0F00
1C00
0000
E1C0
E1C0
E1C0
E1C0
E1C0
E1C0
E1C0
E1C0
E1C0
E1C0
7380
7F80
1E00
ENDCHAR
STARTCHAR Ucircumflex
ENCODING 219
SWIDTH 42 0
DWIDTH 11 0
BBX 10 16 1 0
BITMAP
0E00
1B00
0000
E1C0
E1C0
E1C0
E1C0
E1C0
E1C0
E1C0
E1C0
E1C0
E1C0
7380
7F80
1E00
ENDCHAR
STARTCHAR Udieresis
ENCODING 220
SWIDTH 42 0
DWIDTH 11 0
BBX 10 16 1 0
BITMAP
3300
3300
0000
E1C0
E1C0
E1C0
E1C0
E1C0
E1C0
E1C0
E1C0
E1C0
E1C0
7380
7F80
1E00
ENDCHAR
STARTCHAR Yacute
ENCODING 221
SWIDTH 42 0
DWIDTH 11 0
BBX 11 16 0 0
BITMAP
0F00
1C00
0000
E0E0
E0E0
70C0
71C0
3980
3980
1F00
0E00
0E00
0E00
0E00
0E00
0E00
ENDCHAR
STARTCHAR Thorn
ENCODING 222
SWIDTH 42 0
DWIDTH 11 0
BBX 9 13 1 0
BITMAP
E000
E000
E000
FE00
FF00
E780
E380
E780
FF00
FC00
E000
E000
E000
ENDCHAR
STARTCHAR germandbls
ENCODING 223
SWIDTH 42 0
DWIDTH 11 0
BBX 10 14 1 0
BITMAP
1E00
7F00
E700
E300
E600
EC00
EE00
EF00
E780
E3C0
E1C0
E1C0
E7C0
E780
ENDCHAR
STARTCHAR agrave
ENCODING 224
SWIDTH 42 0
DWIDTH 11 0
BBX 10 13 1 0
BITMAP
3C00
0E00
0000
3E00
7F00
6380
0380
1F80
7F80
E380
E380
FFC0
79C0
ENDCHAR
STARTCHAR aacute
ENCODING 225
SWIDTH 42 0
DWIDTH 11 0
BBX 10 13 1 0
BITMAP
0F00
1C00
0000
3E00
7F00
6380
0380
1F80
7F80
E380
E380
FFC0
79C0
ENDCHAR
STARTCHAR acircumflex
ENCODING 226
SWIDTH 42 0
DWIDTH 11 0
BBX 10 13 1 0
BITMAP
1C00
3600
0000
3E00
7F00
6380
0380
1F80
7F80
E380
E380
FFC0
79C0
ENDCHAR
STARTCHAR atilde
ENCODING 227
SWIDTH 42 0
DWIDTH 11 0
BBX 10 13 1 0
BITMAP
1D00
2E00
0000
3E00
7F00
6380
0380
1F80
7F80
E380
E380
FFC0
79C0
ENDCHAR
STARTCHAR adieresis
ENCODING 228
SWIDTH 42 0
DWIDTH 11 0
BBX 10 13 1 0
BITMAP
3300
3300
0000
3E00
7F00
6380
0380
1F80
7F80
E380
E380
FFC0
79C0
ENDCHAR
STARTCHAR aring
ENCODING 229
SWIDTH 42 0
DWIDTH 11 0
BBX 10 14 1 0
BITMAP
1C00
2600
1C00
0000
3E00
7F00
6380
0380
1F80
7F80
E380
E380
FFC0
79C0
ENDCHAR
STARTCHAR ae
ENCODING 230
SWIDTH 42 0
DWIDTH 11 0
BBX 11 10 0 0
BITMAP
3B80
7FC0
6CE0
0CE0
7FE0
FFE0
CC00
CC60
FFE0
73C0
ENDCHAR
STARTCHAR ccedilla
ENCODING 231
SWIDTH 42 0
DWIDTH 11 0
BBX 9 13 1 -3
BITMAP
1F00
7F80
7180
E000
E000
E000
E000
F180
7F80
1E00
0C00
0600
1C00
ENDCHAR
STARTCHAR egrave
ENCODING 232
SWIDTH 42 0
DWIDTH 11 0
BBX 9 13 1 0
BITMAP
3C00
0E00
0000
1E00
7F00
7380
E380
FF80
FF80
E000
F180
7F80
1F00
ENDCHAR
STARTCHAR eacute
ENCODING 233
SWIDTH 42 0
DWIDTH 11 0
BBX 9 13 1 0
BITMAP
0F00
1C00
0000
1E00
7F00
7380
E380
FF80
FF80
E000
F180
7F80
1F00
ENDCHAR
STARTCHAR ecircumflex
ENCODING 234
SWIDTH 42 0
DWIDTH 11 0
BBX 9 13 1 0
BITMAP
0E00
1B00
0000
1E00
7F00
7380
E380
FF80
FF80
E000
F180
7F80
1F00
ENDCHAR
STARTCHAR edieresis
ENCODING 235
SWIDTH 42 0
DWIDTH 11 0
BBX 9 13 1 0
BITMAP
3300
3300
0000
1E00
7F00
7380
E380
FF80
FF80
E000
F180
7F80
1F00
ENDCHAR
STARTCHAR igrave
ENCODING 236
SWIDTH 42 0
DWIDTH 11 0
BBX 7 13 2 0
BITMAP
3C
0E
00
FC
FC
1C
1C
1C
1C
1C
1C
1C
1C
ENDCHAR
STARTCHAR iacute
ENCODING 237
SWIDTH 42 0
DWIDTH 11 0
BBX 7 13 2 0
BITMAP
1E
38
00
FC
FC
1C
1C
1C
1C
1C
1C
1C
1C
ENDCHAR
STARTCHAR icircumflex
ENCODING 238
SWIDTH 42 0
DWIDTH 11 0
BBX 7 13 2 0
BITMAP
1C
36
00
FC
FC
1C
1C
1C
1C
1C
1C
1C
1C
ENDCHAR
STARTCHAR idieresis
ENCODING 239
SWIDTH 42 0
DWIDTH 11 0
BBX 7 13 2 0
BITMAP
66
66
00
FC
FC
1C
1C
1C
1C
1C
1C
1C
1C
ENDCHAR
STARTCHAR eth
ENCODING 240
SWIDTH 42 0
DWIDTH 11 0
BBX 10 14 1 0
BITMAP
7300
7C00
0E00
3700
0380
1F80
7FC0
73C0
E1C0
E1C0
E1C0
7380
7F80
1E00
ENDCHAR
STARTCHAR ntilde
ENCODING 241
SWIDTH 42 0
DWIDTH 11 0
BBX 9 13 1 0
BITMAP
1D00
2E00
0000
CF00
FF80
F380
E380
E380
E380
E380
E380
E380
E380
ENDCHAR
STARTCHAR ograve
ENCODING 242
SWIDTH 42 0
DWIDTH 11 0
BBX 10 13 1 0
BITMAP
3C00
0E00
0000
1E00
7F80
7380
E1C0
E1C0
E1C0
E1C0
7380
7F80
1E00
ENDCHAR
STARTCHAR oacute
ENCODING 243
SWIDTH 42 0
DWIDTH 11 0
BBX 10 13 1 0
BITMAP
0F00
1C00
0000
1E00
7F80
7380
E1C0
E1C0
E1C0
E1C0
7380
7F80
1E00
ENDCHAR
STARTCHAR ocircumflex
ENCODING 244
SWIDTH 42 0
DWIDTH 11 0
BBX 10 13 1 0
BITMAP
0E00
1B00
0000
1E00
7F80
7380
E1C0
E1C0
E1C0
E1C0
7380
7F80
1E00
ENDCHAR
STARTCHAR otilde
ENCODING 245
SWIDTH 42 0
DWIDTH 11 0
BBX 10 13 1 0
BITMAP
1D00
2E00
0000
1E00
7F80
7380
E1C0
E1C0
E1C0
E1C0
7380
7F80
1E00
ENDCHAR
STARTCHAR odieresis
ENCODING 246
SWIDTH 42 0
DWIDTH 11 0
BBX 10 13 1 0
BITMAP
3300
3300
0000
1E00
7F80
7380
E1C0
E1C0
E1C0
E1C0
7380
7F80
1E00
ENDCHAR
STARTCHAR divide
ENCODING 247
SWIDTH 42 0
DWIDTH 11 0
BBX 10 10 1 1
BITMAP
0C00
0C00
0000
0000
FFC0
FFC0
0000
0000
0C00
0C00
ENDCHAR
STARTCHAR oslash
ENCODING 248
SWIDTH 42 0
DWIDTH 11 0
BBX 10 10 1 0
BITMAP
1EC0
7F80
7380
E7C0
EDC0
EDC0
F9C0
7380
7F80
DE00
ENDCHAR
STARTCHAR ugrave
ENCODING 249
SWIDTH 42 0
DWIDTH 11 0
BBX 9 13 1 0
BITMAP
3C00
0E00
0000
E380
E380
E380
E380
E380
E380
E380
E780
FF80
7980
ENDCHAR
STARTCHAR uacute
ENCODING 250
SWIDTH 42 0
DWIDTH 11 0
BBX 9 13 1 0
BITMAP
1E00
3800
0000
E380
E380
E380
E380
E380
E380
E380
E780
FF80
7980
ENDCHAR
STARTCHAR ucircumflex
ENCODING 251
SWIDTH 42 0
DWIDTH 11 0
BBX 9 13 1 0
BITMAP
1C00
3600
0000
E380
E380
E380
E380
E380
E380
E380
E780
FF80
7980
ENDCHAR
STARTCHAR udieresis
ENCODING 252
SWIDTH 42 0
DWIDTH 11 0
BBX 9 13 1 0
BITMAP
3300
3300
0000
E380
E380
E380
E380
E380
E380
E380
E780
FF80
7980
ENDCHAR
STARTCHAR yacute
ENCODING 253
SWIDTH 42 0
DWIDTH 11 0
BBX 10 16 1 -3
BITMAP
0F00
1C00
0000
E0C0
E0C0
E0C0
7180
7180
3B00
3B00
1E00
1E00
0C00
1C00
3800
3800
ENDCHAR
STARTCHAR thorn
ENCODING 254
SWIDTH 42 0
DWIDTH 11 0
BBX 9 16 1 -3
BITMAP
E000
E000
E000
EE00
FF00
F780
E380
E380
E380
E380
E700
FF00
EC00
E000
E000
E000
ENDCHAR
STARTCHAR ydieresis
ENCODING 255
SWIDTH 42 0
DWIDTH 11 0
BBX 10 16 1 -3
BITMAP
3300
3300
0000
E0C0
E0C0
E0C0
7180
7180
3B00
3B00
1E00
1E00
0C00
1C00
3800
3800
ENDCHAR
STARTCHAR fl
ENCODING -1
SWIDTH 42 0
DWIDTH 11 0
BBX 9 14 1 0
BITMAP
1F80
3F80
7380
7380
FB80
FB80
7380
7380
7380
7380
7380
7380
7380
7380
ENDCHAR
STARTCHAR endash
ENCODING -1
SWIDTH 42 0
DWIDTH 11 0
BBX 7 2 2 5
BITMAP
FE
FE
ENDCHAR
STARTCHAR dagger
ENCODING -1
SWIDTH 42 0
DWIDTH 11 0
BBX 9 15 1 -2
BITMAP
1C00
1C00
1C00
1C00
FF80
FF80
1C00
1C00
1C00
1C00
1C00
1C00
1C00
1C00
1C00
ENDCHAR
STARTCHAR Zcaron
ENCODING -1
SWIDTH 42 0
DWIDTH 11 0
BBX 10 16 1 0
BITMAP
1B00
0E00
0000
FFC0
FFC0
03C0
0780
0F00
0F00
1E00
3C00
3C00
7800
F000
FFC0
FFC0
ENDCHAR
STARTCHAR oe
ENCODING -1
SWIDTH 42 0
DWIDTH 11 0
BBX 11 10 0 0
BITMAP
3B80
7FC0
E660
C660
C7E0
C7E0
C600
E660
7FE0
3BC0
ENDCHAR
STARTCHAR Ydieresis
ENCODING -1
SWIDTH 42 0
DWIDTH 11 0
BBX 11 16 0 0
BITMAP
1980
1980
0000
E0E0
E0E0
70C0
71C0
3980
3980
1F00
0E00
0E00
0E00
0E00
0E00
0E00
ENDCHAR
STARTCHAR dotlessi
ENCODING -1
SWIDTH 42 0
DWIDTH 11 0
BBX 6 10 2 0
BITMAP
FC
FC
1C
1C
1C
1C
1C
1C
1C
1C
ENDCHAR
STARTCHAR lslash
ENCODING -1
SWIDTH 42 0
DWIDTH 11 0
BBX 9 14 2 0
BITMAP
FC00
FC00
1C00
1C00
1D80
1F80
3E00
FC00
DC00
1C00
1C00
1C00
1C00
1C00
ENDCHAR
STARTCHAR Lslash
ENCODING -1
SWIDTH 42 0
DWIDTH 11 0
BBX 11 13 0 0
BITMAP
3800
3800
3800
3800
3B00
3F00
FC00
F800
3800
3800
3800
3FE0
3FE0
ENDCHAR
STARTCHAR daggerdbl
ENCODING -1
SWIDTH 42 0
DWIDTH 11 0
BBX 9 15 1 -2
BITMAP
1C00
1C00
1C00
1C00
FF80
FF80
1C00
1C00
1C00
FF80
FF80
1C00
1C00
1C00
1C00
ENDCHAR
STARTCHAR fi
ENCODING -1
SWIDTH 42 0
DWIDTH 11 0
BBX 9 14 1 0
BITMAP
1F80
3F80
7380
7000
FF80
FF80
7380
7380
7380
7380
7380
7380
7380
7380
ENDCHAR
STARTCHAR guilsinglright
ENCODING -1
SWIDTH 42 0
DWIDTH 11 0
BBX 5 8 4 1
BITMAP
40
E0
70
38
38
70
E0
40
ENDCHAR
STARTCHAR OE
ENCODING -1
SWIDTH 42 0
DWIDTH 11 0
BBX 11 13 0 0
BITMAP
1DE0
3FE0
7700
6700
E700
E7E0
E7E0
E700
E700
6700
7700
3FE0
1DE0
ENDCHAR
STARTCHAR emdash
ENCODING -1
SWIDTH 42 0
DWIDTH 11 0
BBX 9 2 1 5
BITMAP
FF80
FF80
ENDCHAR
STARTCHAR caron
ENCODING -1
SWIDTH 42 0
DWIDTH 11 0
BBX 5 2 3 11
BITMAP
D8
70
ENDCHAR
STARTCHAR ogonek
ENCODING -1
SWIDTH 42 0
DWIDTH 11 0
BBX 4 3 4 -3
BITMAP
60
C0
70
ENDCHAR
STARTCHAR hungarumlaut
ENCODING -1
SWIDTH 42 0
DWIDTH 11 0
BBX 5 3 3 11
BITMAP
48
D8
90
ENDCHAR
STARTCHAR guilsinglleft
ENCODING -1
SWIDTH 42 0
DWIDTH 11 0
BBX 5 8 2 1
BITMAP
10
38
70
E0
E0
70
38
10
ENDCHAR
STARTCHAR dotaccent
ENCODING -1
SWIDTH 42 0
DWIDTH 11 0
BBX 3 2 4 11
BITMAP
E0
E0
ENDCHAR
STARTCHAR breve
ENCODING -1
SWIDTH 42 0
DWIDTH 11 0
BBX 5 3 3 11
BITMAP
88
F8
70
ENDCHAR
STARTCHAR bullet
ENCODING -1
SWIDTH 42 0
DWIDTH 11 0
BBX 6 6 3 2
BITMAP
78
FC
FC
FC
FC
78
ENDCHAR
STARTCHAR tilde
ENCODING -1
SWIDTH 42 0
DWIDTH 11 0
BBX 6 2 3 11
BITMAP
74
B8
ENDCHAR
STARTCHAR circumflex
ENCODING -1
SWIDTH 42 0
DWIDTH 11 0
BBX 5 2 3 11
BITMAP
70
D8
ENDCHAR
STARTCHAR quotedblleft
ENCODING -1
SWIDTH 42 0
DWIDTH 11 0
BBX 8 5 2 9
BITMAP
63
C6
E7
E7
E7
ENDCHAR
STARTCHAR quotesingle
ENCODING -1
SWIDTH 42 0
DWIDTH 11 0
BBX 3 5 4 9
BITMAP
E0
E0
E0
C0
C0
ENDCHAR
STARTCHAR scaron
ENCODING -1
SWIDTH 42 0
DWIDTH 11 0
BBX 9 13 1 0
BITMAP
3600
1C00
0000
3F00
7F80
E180
F000
7C00
1F00
0780
C380
FF00
7E00
ENDCHAR
STARTCHAR ring
ENCODING -1
SWIDTH 42 0
DWIDTH 11 0
BBX 5 3 3 11
BITMAP
70
98
70
ENDCHAR
STARTCHAR quotesinglbase
ENCODING -1
SWIDTH 42 0
DWIDTH 11 0
BBX 4 5 3 -2
BITMAP
F0
F0
F0
30
E0
ENDCHAR
STARTCHAR florin
ENCODING -1
SWIDTH 42 0
DWIDTH 11 0
BBX 11 15 0 -2
BITMAP
03C0
07E0
0E60
1C00
1C00
FF80
FF80
3800
3800
3800
3800
7000
7000
7000
7000
ENDCHAR
STARTCHAR trademark
ENCODING -1
SWIDTH 42 0
DWIDTH 11 0
BBX 11 6 0 7
BITMAP
FEE0
6EE0
6FE0
6FE0
6D60
6C60
ENDCHAR
STARTCHAR fraction
ENCODING -1
SWIDTH 42 0
DWIDTH 11 0
BBX 11 13 0 0
BITMAP
00E0
00E0
01C0
0380
0380
0700
0E00
1C00
3800
3800
7000
E000
E000
ENDCHAR
STARTCHAR grave
ENCODING -1
SWIDTH 42 0
DWIDTH 11 0
BBX 5 2 3 11
BITMAP
F0
38
ENDCHAR
STARTCHAR perthousand
ENCODING -1
SWIDTH 42 0
DWIDTH 11 0
BBX 11 13 0 0
BITMAP
7000
D980
D980
DB00
DA00
DC00
76C0
1B60
6B60
CB60
CB60
0B60
06C0
ENDCHAR
STARTCHAR ellipsis
ENCODING -1
SWIDTH 42 0
DWIDTH 11 0
BBX 7 2 2 0
BITMAP
C6
C6
ENDCHAR
STARTCHAR quotedblright
ENCODING -1
SWIDTH 42 0
DWIDTH 11 0
BBX 8 5 1 9
BITMAP
E7
E7
E7
63
C6
ENDCHAR
STARTCHAR Scaron
ENCODING -1
SWIDTH 42 0
DWIDTH 11 0
BBX 9 16 1 0
BITMAP
1B00
0E00
0000
3F00
7F80
E180
E000
F800
FE00
7F00
1F80
0780
0380
C380
FF00
7E00
ENDCHAR
STARTCHAR quotedblbase
ENCODING -1
SWIDTH 42 0
DWIDTH 11 0
BBX 8 5 1 -2
BITMAP
E7
E7
E7
63
C6
ENDCHAR
STARTCHAR zcaron
ENCODING -1
SWIDTH 42 0
DWIDTH 11 0
BBX 9 13 1 0
BITMAP
3600
1C00
0000
FF80
FF80
0700
0E00
1C00
3800
7000
E000
FF80
FF80
ENDCHAR
ENDFONT
